<svg width="22" height="24" viewBox="0 0 22 24" fill="none" xmlns="http://www.w3.org/2000/svg">
<path d="M7.23364 23.9999C3.27473 23.9794 0 16.6879 0 12.9745C0 6.90873 5.04338 5.58077 6.98706 5.58077C7.863 5.58077 8.79832 5.89112 9.62329 6.16576C10.2002 6.35734 10.7968 6.5551 11.1286 6.5551C11.3273 6.5551 11.7953 6.38687 12.2085 6.23926C13.0898 5.92272 14.1865 5.5293 15.4635 5.5293C15.4658 5.5293 15.4688 5.5293 15.4711 5.5293C16.4246 5.5293 19.3158 5.71811 21.054 8.07328L21.4612 8.62533L20.8752 9.02428C20.0381 9.59418 18.5107 10.6338 18.5107 12.693C18.5107 15.132 20.2405 16.0699 21.0715 16.5211C21.4384 16.7202 21.8181 16.9255 21.8181 17.3746C21.8181 17.6678 19.2245 23.9636 15.4581 23.9636C14.5365 23.9636 13.8851 23.7136 13.3105 23.4932C12.7291 23.27 12.2275 23.0778 11.3987 23.0778C10.9786 23.0778 10.4474 23.257 9.88503 23.4472C9.11648 23.706 8.24657 23.9999 7.25951 23.9999H7.23364Z" fill="#222222"/>
<path d="M15.8606 0C15.9587 3.19105 13.4294 5.40485 10.903 5.26601C10.4867 2.71944 13.429 0 15.8606 0Z" fill="#222222"/>
</svg>
