<svg width="13" height="13" viewBox="0 0 13 13" fill="none" xmlns="http://www.w3.org/2000/svg">
<path d="M12.3015 6.20449C12.2995 8.86647 10.6052 11.2288 8.0947 12.07C8.00074 12.0991 7.89867 12.0831 7.81794 12.0266C7.73722 11.9676 7.68926 11.8734 7.68879 11.773V10.121C7.70209 9.67604 7.59585 9.23573 7.38127 8.84643C7.34881 8.79553 7.34881 8.73027 7.38127 8.67937C7.40621 8.63243 7.4519 8.60026 7.50428 8.59275C9.00495 8.43807 9.84139 7.83791 9.84139 6.20449C9.87757 5.44183 9.61476 4.69534 9.1095 4.12559C9.18319 3.88491 9.22254 3.63493 9.22636 3.38313C9.22372 3.15737 9.19272 2.93285 9.13411 2.71491C9.09543 2.56958 8.95668 2.47477 8.80814 2.49217C8.24462 2.57263 7.72006 2.82784 7.30747 3.22226C6.54369 3.0738 5.75873 3.0738 4.99495 3.22226C4.58236 2.82784 4.0578 2.57263 3.49428 2.49217C3.34574 2.47477 3.20698 2.56958 3.16831 2.71491C3.10969 2.93285 3.0787 3.15737 3.07606 3.38313C3.07988 3.63493 3.11923 3.88491 3.19291 4.12559C2.68765 4.69534 2.42485 5.44183 2.46103 6.20449C2.46103 7.92453 3.38972 8.49994 5.09336 8.64225C4.88188 8.92104 4.7367 9.24487 4.66899 9.58889C4.66899 9.58889 4.66899 9.6322 4.66899 9.66314C4.66602 9.69193 4.66602 9.72096 4.66899 9.74976C4.64339 9.94426 4.46955 10.0836 4.27537 10.0653C4.18278 10.0609 4.09237 10.0355 4.0109 9.99106C3.67584 9.78576 3.38005 9.52172 3.13756 9.21147C2.98306 9.03523 2.81879 8.86791 2.64554 8.71031C2.53545 8.61444 2.41348 8.53333 2.28267 8.46901C2.191 8.4172 2.07912 8.4172 1.98745 8.46901C1.89945 8.5258 1.84617 8.62369 1.846 8.72887V8.76599C1.84617 8.87117 1.89945 8.96906 1.98745 9.02585C2.20823 9.21176 2.39909 9.43091 2.55328 9.67551C2.81367 10.086 3.14484 10.4464 3.53118 10.7397C3.78573 10.9114 4.08577 11.0019 4.39222 10.9996H4.61363V11.773C4.61316 11.8734 4.5652 11.9676 4.48448 12.0266C4.40375 12.0831 4.30168 12.0991 4.20771 12.07C1.22607 11.0709 -0.527257 7.97124 0.141976 4.88223C0.81121 1.79322 3.6877 -0.29134 6.81217 0.0484243C9.93665 0.388189 12.3039 3.04296 12.3015 6.20449Z" fill="#555555"/>
</svg>
