<svg width="13" height="13" viewBox="0 0 13 13" fill="none" xmlns="http://www.w3.org/2000/svg">
<path fill-rule="evenodd" clip-rule="evenodd" d="M0 1.43237C0 0.648037 0.632066 0.012207 1.41176 0.012207C1.78618 0.012207 2.14527 0.161831 2.41002 0.428164C2.67478 0.694497 2.82352 1.05572 2.82352 1.43237C2.82352 2.21671 2.19145 2.85254 1.41176 2.85254C0.632066 2.85254 0 2.21671 0 1.43237ZM12.3545 7.40458C12.3789 5.86712 11.3362 4.51983 9.84866 4.16647C8.85177 3.95052 7.81267 4.23369 7.06043 4.92629V4.62804C7.06043 4.43195 6.90241 4.27298 6.70749 4.27298H4.94278C4.74786 4.27298 4.58984 4.43195 4.58984 4.62804V11.7292C4.58984 11.9253 4.74786 12.0842 4.94278 12.0842H6.70749C6.90241 12.0842 7.06043 11.9253 7.06043 11.7292V7.72413C7.043 7.01098 7.53707 6.38818 8.23219 6.2471C8.64608 6.17522 9.0703 6.29248 9.38959 6.56701C9.70887 6.84154 9.89007 7.24483 9.88395 7.66733V11.7292C9.88395 11.9253 10.042 12.0842 10.2369 12.0842H12.0016C12.1965 12.0842 12.3545 11.9253 12.3545 11.7292V7.40458ZM2.82214 4.62777V11.7292C2.82214 11.9253 2.66413 12.0842 2.4692 12.0842H0.704503C0.509579 12.0842 0.351562 11.9253 0.351562 11.7292V4.62777C0.351562 4.43167 0.509579 4.27271 0.704503 4.27271H2.4692C2.66413 4.27271 2.82214 4.43167 2.82214 4.62777Z" fill="#555555"/>
</svg>
