<svg width="30" height="30" viewBox="0 0 30 30" fill="none" xmlns="http://www.w3.org/2000/svg">
<g clip-path="url(#clip0_492_130)">
<path d="M25.3125 13.75C24.9788 13.75 24.6513 13.7862 24.335 13.8525C23.9138 9.59125 20.3075 6.25 15.9375 6.25C15.42 6.25 15 6.67 15 7.1875V22.1875C15 22.705 15.42 23.125 15.9375 23.125H25.3125C27.8988 23.125 30 21.0237 30 18.4375C30 15.8537 27.8988 13.75 25.3125 13.75Z" fill="#222222"/>
<path d="M11.25 9.0625V22.1875C11.25 22.705 11.67 23.125 12.1875 23.125C12.705 23.125 13.125 22.705 13.125 22.1875V9.0625C13.125 8.545 12.705 8.125 12.1875 8.125C11.67 8.125 11.25 8.545 11.25 9.0625Z" fill="#222222"/>
<path d="M7.5 12.8125V22.1875C7.5 22.705 7.92 23.125 8.4375 23.125C8.955 23.125 9.375 22.705 9.375 22.1875V12.8125C9.375 12.295 8.955 11.875 8.4375 11.875C7.92 11.875 7.5 12.295 7.5 12.8125Z" fill="#222222"/>
<path d="M3.75 22.1875C3.75 22.705 4.17 23.125 4.6875 23.125C5.205 23.125 5.625 22.705 5.625 22.1875V12.8125C5.625 12.295 5.205 11.875 4.6875 11.875C4.17 11.875 3.75 12.295 3.75 12.8125V22.1875Z" fill="#222222"/>
<path d="M0.9375 23.125C1.455 23.125 1.875 22.705 1.875 22.1875V16.5625C1.875 16.045 1.455 15.625 0.9375 15.625C0.42 15.625 0 16.045 0 16.5625V22.1875C0 22.705 0.42 23.125 0.9375 23.125Z" fill="#222222"/>
</g>
<defs>
<clipPath id="clip0_492_130">
<rect width="30" height="30" fill="white"/>
</clipPath>
</defs>
</svg>
