<svg width="18" height="19" viewBox="0 0 18 19" fill="none" xmlns="http://www.w3.org/2000/svg">
<path d="M13.9659 3.14924C13.6244 3.60751 13.2116 4.00725 12.7435 4.33304C12.7435 4.45275 12.7435 4.57246 12.7435 4.69882C12.7473 6.87275 11.8841 8.95725 10.3475 10.485C8.81094 12.0128 6.72949 12.8561 4.56978 12.8258C3.32121 12.83 2.08862 12.5432 0.968582 11.9878C0.908189 11.9613 0.869237 11.9012 0.869466 11.8349V11.7617C0.869466 11.6662 0.946384 11.5888 1.04127 11.5888C2.26858 11.5481 3.45212 11.12 4.42441 10.3651C3.31352 10.3426 2.314 9.68055 1.85401 8.66256C1.83078 8.60696 1.83801 8.54318 1.8731 8.49428C1.90819 8.44538 1.96607 8.41842 2.02581 8.42314C2.36344 8.45728 2.70444 8.42567 3.03019 8.33003C1.80385 8.07394 0.882402 7.04973 0.750528 5.79617C0.745841 5.73603 0.772629 5.67778 0.821214 5.64247C0.8698 5.60715 0.93316 5.59987 0.988405 5.62325C1.3175 5.76934 1.67276 5.84628 2.03242 5.84937C0.957864 5.13985 0.493727 3.79031 0.902505 2.56399C0.9447 2.44483 1.04607 2.3568 1.16938 2.33225C1.29268 2.30771 1.41971 2.35026 1.50381 2.44428C2.95385 3.99684 4.94625 4.922 7.06089 5.0247C7.00672 4.80726 6.98008 4.58381 6.98159 4.35965C7.00137 3.18424 7.72429 2.13717 8.81192 1.70863C9.89954 1.28009 11.1366 1.55489 11.944 2.40438C12.4943 2.29891 13.0264 2.11294 13.5232 1.85238C13.5596 1.82953 13.6058 1.82953 13.6422 1.85238C13.6649 1.88901 13.6649 1.93546 13.6422 1.97209C13.4015 2.52649 12.995 2.99147 12.4792 3.30221C12.9308 3.24952 13.3745 3.14234 13.8007 2.98298C13.8366 2.95841 13.8838 2.95841 13.9197 2.98298C13.9497 2.99682 13.9722 3.02328 13.9811 3.05531C13.99 3.08735 13.9845 3.12171 13.9659 3.14924Z" fill="#555555"/>
</svg>
